<?xml version="1.0" encoding="utf-8"?>
<!-- Generator: Adobe Illustrator 24.3.0, SVG Export Plug-In . SVG Version: 6.00 Build 0)  -->
<svg version="1.1" id="Layer_1" xmlns="http://www.w3.org/2000/svg" xmlns:xlink="http://www.w3.org/1999/xlink" x="0px" y="0px"
	 viewBox="0 0 193.3 227.2" style="enable-background:new 0 0 193.3 227.2;" xml:space="preserve">
<style type="text/css">
	.st0{fill:#8E97A0;}
</style>
<path class="st0" d="M163.7,69.5H29.5v-48h134.2V69.5z M37.6,61.4h118V29.5h-118C37.6,29.5,37.6,61.4,37.6,61.4z"/>
<polygon class="st0" points="0.1,0 0.1,193.1 8.2,193.1 8.2,185 8.2,149.1 8.2,8.1 185.1,8.1 185.1,149.1 185.1,160.6 185.1,168.8 
	193.2,168.8 193.2,0 "/>
<path class="st0" d="M185.2,219.1H22.7c-8.1,0-14.6-6.6-14.6-14.6v-17.4c0-7.5,6.1-13.5,13.5-13.5h171.7v-8.1H21.7
	c-12,0-21.7,9.6-21.7,21.6v17.3c0,12.6,10.1,22.7,22.7,22.8h170.6v-8.1H185.2z"/>
</svg>
