<?xml version="1.0" encoding="utf-8"?>
<!-- Generator: Adobe Illustrator 24.3.0, SVG Export Plug-In . SVG Version: 6.00 Build 0)  -->
<svg version="1.1" id="Layer_1" xmlns="http://www.w3.org/2000/svg" xmlns:xlink="http://www.w3.org/1999/xlink" x="0px" y="0px"
	 viewBox="0 0 136.4 136.3" style="enable-background:new 0 0 136.4 136.3;" xml:space="preserve">
<style type="text/css">
	.st0{fill:#8E97A0;}
</style>
<path class="st0" d="M42.7,116.5c-0.5,0.4-1.4,0.9-2.1,1.5c-2.4,1.8-4.8,3.5-7.1,5.5c-2.5,2.1-4.5,2.1-6.9-0.3
	c-4.3-4.6-8.8-9.1-13.4-13.4c-2.3-2.2-2.4-4.1-0.4-6.5c1.2-1.4,2.2-2.9,3.4-4.3c3.9-5.1,4-8.1,0.4-13.5c-1.5-2.2-3.9-1.7-5.8-1.9
	C0.1,81.9,0.1,82,0.1,71.2c0-4.2,0.1-8.3,0-12.5C0,55.7,1,54,4.2,53.8c1.6-0.1,3.3-0.5,4.9-0.7c6.8-0.7,8.9-2.7,10.5-9.4
	c0.4-2-0.9-2.7-1.7-3.8c-7.5-10.4-7.6-10.4,1.6-19.5c2.5-2.5,5-4.9,7.4-7.4c2-2.2,3.9-2.2,6.1-0.4c1.3,1.1,2.9,1.8,3.9,3.1
	c4.2,5.5,8.7,3.1,13.5,1.1c2.3-1,2-2.8,2.3-4.5C55,0,54.9,0,67.5,0c3.5,0,7,0.1,10.5,0c2.8,0,4.4,1,4.6,4c0.1,1.5,0.5,3,0.6,4.4
	c0.8,8,1.8,8.9,9.3,11.1c2.2,0.7,3-0.9,4.2-1.8c10.2-7.4,10.2-7.5,19.1,1.6c3.2,3.3,8.3,5.8,9,10.3s-4.6,7.3-6.9,11
	c-1.9,3.1,1.3,11.1,5,11.8c3.3,0.6,6.6,1.1,9.9,1.5c2.7,0.3,3.7,1.7,3.7,4.3c-0.1,6.7-0.1,13.3,0,20c0,2.6-1,4-3.7,4.3
	c-2,0.2-3.9,0.7-5.9,0.8c-4.4,0.1-7.1,1.6-8.7,6.2c-1.2,3.5-0.9,5.5,1.2,8.3c7.9,10.1,8.2,7.4-1,16.9c-2.8,2.9-5.8,5.5-8.5,8.5
	c-2.3,2.5-4.4,2.5-6.9,0.3c-1.1-1-2.6-1.6-3.5-2.8c-4.1-5.4-8.7-3.1-13.5-1.1c-2.3,1-2,2.8-2.3,4.5c-2.2,12.3-2.2,12.3-14.8,12.3
	c-3.7,0-7.3,0-11,0c-2.4,0-3.7-0.9-4-3.4s-0.7-5-1-7.4C52.4,121.3,47.1,116.6,42.7,116.5z M117.2,30.7c0-1.3-1-1.8-1.6-2.5
	c-2.1-2.1-4.5-4-6.3-6.4c-2.4-3.2-4.5-2.7-6.7-0.2c-4.9,5.3-10.1,6.9-16.4,2.2c-1.3-0.8-2.7-1.3-4.2-1.5c-2.8-0.5-3.7-2.1-4.2-4.7
	C77,14,78.5,8.8,75.4,7c-2.9-1.7-7.5-0.3-11.2-0.6C61.3,6.2,59.5,7,59.8,10c0.7,8.5-3.6,12.4-11.4,15.1c-4.9,1.7-7.9,1.9-11.9-1.5
	c-5.9-5-6.1-4.8-11.5,0.6c-6.1,6.1-6.3,6.2-0.6,13c2.9,3.5,2.3,6.1,1.1,10.2c-2.5,8.5-7,12.9-16,12.4c-1.7-0.1-3.4,0.5-3,2.9
	c0.8,4.5-1.7,9.4,1.4,13.7c0.2,0.3,1,0.4,1.4,0.3c9.6-1,14,4.3,16,12.8c0.2,0.5,0.4,0.9,0.7,1.3c1.6,2.4,1.4,4.4-0.5,6.8
	c-2.2,2.8-6.4,5.6-5.8,8.7c0.6,3,4.8,5.2,7.1,8s4.5,3.4,7.1,0.5c4.8-5.3,10.1-6.9,16.4-2.1c1.3,0.8,2.7,1.3,4.2,1.5
	c2.8,0.5,3.6,2.2,4.1,4.8c0.8,3.6-0.8,8.8,2.5,10.6c2.9,1.6,7.5,0.2,11.3,0.5c2.9,0.2,4.6-0.7,4.4-3.7c-0.7-8.5,3.6-12.3,11.4-15
	c5-1.8,8-1.9,11.9,1.5c5.9,5,6,4.7,11.5-0.7c6-6,6.2-6.1,0.6-13c-2.6-3.2-2.7-5.6-1.4-9.7c2.8-8.7,7.2-13.5,16.7-12.9
	c2.2,0.1,3-1.4,2.5-3.3c-1.1-4.4,2.4-9.4-1.8-13.3c-0.3-0.2-0.7-0.3-1-0.2c-9.8,1-13.8-4.7-16.5-13.1c-1.2-3.6-1.6-6,1-8.9
	C113.7,35.6,115.4,33,117.2,30.7L117.2,30.7z"/>
<path class="st0" d="M96.8,68.1c0,15.8-12.8,28.6-28.6,28.6S39.6,83.9,39.6,68.1s12.8-28.6,28.6-28.6h0.1
	C84,39.6,96.7,52.4,96.8,68.1z M68.1,90.1c12.2,0,22-9.8,22.1-21.9c0-12.2-9.8-22-21.9-22.1c-12,0-21.9,9.6-22.1,21.6
	c-0.3,12.1,9.3,22.1,21.4,22.4C67.8,90.1,67.9,90.2,68.1,90.1L68.1,90.1z"/>
</svg>
