<?xml version="1.0" encoding="utf-8"?>
<!-- Generator: Adobe Illustrator 24.3.0, SVG Export Plug-In . SVG Version: 6.00 Build 0)  -->
<svg version="1.1" id="Layer_1" xmlns="http://www.w3.org/2000/svg" xmlns:xlink="http://www.w3.org/1999/xlink" x="0px" y="0px"
	 viewBox="0 0 274.7 414.6" style="enable-background:new 0 0 274.7 414.6;" xml:space="preserve">
<style type="text/css">
	.st0{fill:#8E97A0;}
</style>
<path class="st0" d="M134.8,186.1c-51.4,0-93.1-41.7-93.1-93.1C41.7,41.7,83.4,0,134.8,0c51.4,0,93,41.6,93.1,93
	C227.8,144.4,186.2,186,134.8,186.1z M134.8,32.6c-33.4,0-60.5,27.1-60.5,60.5s27.1,60.5,60.5,60.5c33.4,0,60.5-27.1,60.5-60.5
	c0,0,0,0,0,0C195.2,59.6,168.1,32.6,134.8,32.6L134.8,32.6z"/>
<path class="st0" d="M134.8,244.3c-31.3,0-56.6-25.4-56.6-56.6c0-10.8,3.1-19.3,9.3-25.3c10.2-9.9,24.5-9.5,38.2-9.1
	c5.8,0.2,12.3,0.2,18.1,0c13.8-0.4,28-0.8,38.2,9.1c6.2,6,9.4,14.5,9.4,25.3C191.4,219,166,244.3,134.8,244.3z M110.8,186.1
	c0,0.4-0.1,1-0.1,1.6c0,13.3,10.8,24.1,24.1,24.1s24.1-10.8,24.1-24.1c0,0,0,0,0,0c0-0.7,0-1.2-0.1-1.6c-3.2-0.5-9.6-0.3-14-0.2
	c-6.4,0.2-13.6,0.2-20,0C120.3,185.8,114,185.6,110.8,186.1L110.8,186.1z"/>
<path class="st0" d="M137.3,414.6C61.6,414.6,0,356,0,284.1s61.6-130.5,137.3-130.5s137.4,58.6,137.4,130.5S213.1,414.6,137.3,414.6
	z M137.3,186.1c-57.8,0-104.8,43.9-104.8,97.9s47,98,104.8,98s104.8-43.9,104.8-98S195.1,186.1,137.3,186.1z"/>
</svg>
